<svg xmlns="http://www.w3.org/2000/svg" xmlns:xlink="http://www.w3.org/1999/xlink" width="5669" zoomAndPan="magnify" viewBox="0 0 4251.75 2551.499951" height="3401" preserveAspectRatio="xMidYMid meet" version="1.0"><defs><g/></defs><g fill="#ffffff" fill-opacity="1"><g transform="translate(16.84897, 2356.518041)"><g><path d="M 615.351562 0 L 615.351562 -2126.625 L 82.898438 -2126.625 L 82.898438 0 Z M 615.351562 0 "/></g></g></g><g fill="#ffffff" fill-opacity="1"><g transform="translate(715.089945, 2356.518041)"><g><path d="M 1680.257812 0 L 1680.257812 -484.628906 L 615.351562 -484.628906 L 615.351562 -835.347656 L 1680.257812 -835.347656 L 1680.257812 -2126.625 L 82.898438 -2126.625 L 82.898438 -1638.808594 L 1147.804688 -1638.808594 L 1147.804688 -1304.03125 L 82.898438 -1304.03125 L 82.898438 0 Z M 1680.257812 0 "/></g></g></g><g fill="#ffffff" fill-opacity="1"><g transform="translate(2475.039903, 2356.518041)"><g><path d="M 1680.257812 0 L 1680.257812 -1304.03125 L 1575.042969 -1304.03125 L 1575.042969 -2126.625 L 82.898438 -2126.625 L 82.898438 -1638.808594 L 1147.804688 -1638.808594 L 1147.804688 -1304.03125 L 82.898438 -1304.03125 L 82.898438 -835.347656 L 1147.804688 -835.347656 L 1147.804688 -484.628906 L 82.898438 -484.628906 L 82.898438 0 Z M 1680.257812 0 "/></g></g></g></svg>